<mxfile host="Electron" modified="2024-06-12T14:58:42.048Z" agent="Mozilla/5.0 (Windows NT 10.0; Win64; x64) AppleWebKit/537.36 (KHTML, like Gecko) draw.io/24.5.1 Chrome/124.0.6367.207 Electron/30.0.6 Safari/537.36" etag="YNsJCZj-eQiuS2ulpWzR" version="24.5.1" type="device">
  <diagram name="PÃ¡gina-1" id="haeQiHn3vkx1N-hQuHfF">
    <mxGraphModel dx="880" dy="532" grid="1" gridSize="10" guides="1" tooltips="1" connect="1" arrows="1" fold="1" page="1" pageScale="1" pageWidth="827" pageHeight="1169" math="0" shadow="0">
      <root>
        <mxCell id="0" />
        <mxCell id="1" parent="0" />
        <mxCell id="6dyiKKQHUHwyk49-rB7n-4" value="" style="edgeStyle=orthogonalEdgeStyle;rounded=0;orthogonalLoop=1;jettySize=auto;html=1;" edge="1" parent="1" source="6dyiKKQHUHwyk49-rB7n-1" target="6dyiKKQHUHwyk49-rB7n-3">
          <mxGeometry relative="1" as="geometry" />
        </mxCell>
        <mxCell id="6dyiKKQHUHwyk49-rB7n-1" value="Inicio" style="strokeWidth=2;html=1;shape=mxgraph.flowchart.start_2;whiteSpace=wrap;rounded=0;strokeColor=default;align=center;verticalAlign=middle;fontFamily=Helvetica;fontSize=12;fontColor=default;fillColor=default;" vertex="1" parent="1">
          <mxGeometry x="350" y="20" width="100" height="100" as="geometry" />
        </mxCell>
        <mxCell id="6dyiKKQHUHwyk49-rB7n-6" value="" style="edgeStyle=orthogonalEdgeStyle;rounded=0;orthogonalLoop=1;jettySize=auto;html=1;" edge="1" parent="1" source="6dyiKKQHUHwyk49-rB7n-3" target="6dyiKKQHUHwyk49-rB7n-5">
          <mxGeometry relative="1" as="geometry" />
        </mxCell>
        <mxCell id="6dyiKKQHUHwyk49-rB7n-3" value="Por favor ingrese una palabra" style="shape=parallelogram;perimeter=parallelogramPerimeter;whiteSpace=wrap;html=1;fixedSize=1;strokeWidth=2;fillColor=#ffe6cc;strokeColor=#d79b00;" vertex="1" parent="1">
          <mxGeometry x="320" y="153" width="160" height="80" as="geometry" />
        </mxCell>
        <mxCell id="6dyiKKQHUHwyk49-rB7n-8" value="" style="edgeStyle=orthogonalEdgeStyle;rounded=0;orthogonalLoop=1;jettySize=auto;html=1;" edge="1" parent="1" source="6dyiKKQHUHwyk49-rB7n-5" target="6dyiKKQHUHwyk49-rB7n-7">
          <mxGeometry relative="1" as="geometry" />
        </mxCell>
        <mxCell id="6dyiKKQHUHwyk49-rB7n-5" value="Definir la variable cantidad_letras y asignarle la longitud de la palabra ingresada" style="rounded=1;whiteSpace=wrap;html=1;strokeWidth=2;fillColor=#dae8fc;strokeColor=#6c8ebf;" vertex="1" parent="1">
          <mxGeometry x="320" y="271" width="160" height="74" as="geometry" />
        </mxCell>
        <mxCell id="6dyiKKQHUHwyk49-rB7n-10" value="" style="edgeStyle=orthogonalEdgeStyle;rounded=0;orthogonalLoop=1;jettySize=auto;html=1;" edge="1" parent="1" source="6dyiKKQHUHwyk49-rB7n-7" target="6dyiKKQHUHwyk49-rB7n-9">
          <mxGeometry relative="1" as="geometry" />
        </mxCell>
        <mxCell id="6dyiKKQHUHwyk49-rB7n-7" value="Mostrar mensaje &quot;La palabra ingresada tiene&quot;, cantidad_letras, &quot;letras&quot;" style="shape=parallelogram;perimeter=parallelogramPerimeter;whiteSpace=wrap;html=1;fixedSize=1;rounded=0;strokeWidth=2;fillColor=#ffe6cc;strokeColor=#d79b00;" vertex="1" parent="1">
          <mxGeometry x="300" y="376" width="200" height="76" as="geometry" />
        </mxCell>
        <mxCell id="6dyiKKQHUHwyk49-rB7n-9" value="Fin" style="ellipse;whiteSpace=wrap;html=1;rounded=0;strokeWidth=2;" vertex="1" parent="1">
          <mxGeometry x="360" y="485" width="80" height="80" as="geometry" />
        </mxCell>
      </root>
    </mxGraphModel>
  </diagram>
</mxfile>
